<?xml version="1.0" standalone="no"?>
<svg xmlns="http://www.w3.org/2000/svg" viewBox="0 0 79.392 29" width="79.392" height="29"><g fill="#3AAFA9" color="#3AAFA9" transform="translate(0, 0) scale(0.6041667)"><svg width="48.0" height="48.0" x="0.0" y="0.0" viewBox="0 0 48 48"><g><g><g><path fill="currentColor" d="M14.3,20.5c1.7-4.1,4.6-6.6,9.3-5.8c1.7,0.3,2,1.3,3.4,1.7c2.5,0.8,4.3,0.6,6.8-0.3     c3.3-1.3,5.7-3.4,9.2,1.6c0.9,1.4,1.1,3.7,1.4,5.3c0.8,4.3,1.2,8.5,0.5,12.8c-0.7,4.6-3,9.5-8.2,9.8c-3.3,0.2-5.3-2.3-8.2-3.1     c-1.5-0.4-3.3,1-4.5,1.5c-6.2,2.4-9.2-6.7-10.2-10.8c-0.2-0.8-1.4-0.5-1.2,0.3c1,4.3,2.5,8.2,6.2,10.8c4.3,2.9,8.4-1.9,12.6,1     c8.3,5.7,13.8-3.5,14.8-10.7c0.7-4.9-0.4-10.2-1.3-15c-0.7-3.5-3.2-5.8-6.7-6.3c-4.7-0.6-6.2,4.5-11.8,1.3     c-1.8-1.1-3.4-1.5-5.6-1.4c-3.9,0.1-6.5,3.7-7.8,6.9C12.8,20.9,14,21.2,14.3,20.5L14.3,20.5z"></path></g></g><g><g><path fill="currentColor" d="M19.7,13.7c-1.8-1.3-9.3-6.1-11.3-2.6c-0.7,1.2-0.2,4.3,0.6,5.5c1.7,2.6,3.9,3.9,6.6,5.3     c4.3,2.3,8.3,5,12.3,7.7c2.6,1.7-1.4,6.1-2.3,7.5c-2.1,3.1-3.9,1.7-6.3,0c-3.9-2.7-7.6-5.7-11.3-8.7c-3.3-2.6-6.3-6-4.2-11     c1.1-2.7,4.1-4.4,6.5-5.7c0.7-0.4,0.1-1.5-0.6-1.1c-5.6,2.9-11.1,9.5-5.8,15.6c2.7,3,6.1,5.4,9.3,7.9c2.3,1.8,4.6,3.5,6.9,5.1     c1,0.7,2.4,2.1,3.7,2.1c1.8,0,4.1-5.3,4.9-6.6c0.8-1.2,3.3-3.8,1.4-5.1c-4.9-3.3-9.8-6.6-15-9.3c-1.2-0.6-2.3-1.3-3.3-2.2     c0.6,0.5-4.6-6.2-1-6.5c3.1-0.2,5.9,1.6,8.4,3.3C19.7,15.3,20.3,14.2,19.7,13.7L19.7,13.7z"></path></g></g><g><g><path fill="currentColor" d="M9.2,17.1c-0.4,1.2-1.4,2-1.8,3.2c-0.2,0.8,1,1.1,1.2,0.3c0.3-1.2,1.4-2,1.8-3.2     C10.7,16.6,9.4,16.3,9.2,17.1L9.2,17.1z"></path></g></g><g><g><path fill="currentColor" d="M12.8,19.9c-0.6,0.9-1,1.8-1.3,2.8c-0.2,0.8,1,1.1,1.2,0.3c0.3-0.9,0.6-1.7,1.2-2.5     C14.3,19.8,13.2,19.2,12.8,19.9L12.8,19.9z"></path></g></g><g><g><path fill="currentColor" d="M16.3,22.2c-0.3,1.6-0.9,3.1-1.9,4.5c-0.5,0.7,0.6,1.3,1.1,0.6c1-1.4,1.7-3,2-4.8     C17.6,21.8,16.4,21.4,16.3,22.2L16.3,22.2z"></path></g></g><g><g><path fill="currentColor" d="M20.5,24.5c-0.4,1.5-1.2,3.1-1.8,4.6c-0.3,0.7,0.9,1.1,1.2,0.3c0.6-1.5,1.4-3,1.8-4.6     C21.9,24,20.7,23.7,20.5,24.5L20.5,24.5z"></path></g></g><g><g><path fill="currentColor" d="M24.6,27.4c-0.6,1-1.2,2.1-1.8,3.1c-0.4,0.7,0.7,1.4,1.1,0.6c0.5-1.1,1.1-2.1,1.8-3.1     C26.1,27.4,25,26.7,24.6,27.4L24.6,27.4z"></path></g></g><g><g><path fill="currentColor" d="M24,3.1c3.3,3.3,5.1,7.6,5.1,12.3c0,0.8,1.3,0.8,1.3,0c-0.1-5-2-9.6-5.5-13.2C24.3,1.6,23.4,2.5,24,3.1     L24,3.1z"></path></g></g><g><g><path fill="currentColor" d="M29.2,9.3c0.5-2.8,3.1-6.6,6.3-6.8c2.1-0.2,4.3,0,6.5,0.1c0.4,0,0.8,0,1.1,0c1.3,2.5,0.6,4.1-2.1,4.6     c-1.3,0.5-2.8,0.7-4.2,0.9c-2.5,0.3-5.1,0.1-7.6-0.5c-0.8-0.2-1.1,1-0.3,1.2c4.5,1,9.1,0.9,13.4-0.8C44.6,7,46.9,4,45.2,1.7     c-0.6-0.8-2.5-0.4-3.2-0.4c-2.4,0-4.9-0.2-7.3,0C31.4,1.5,28.6,6,28,8.9C27.9,9.7,29.1,10,29.2,9.3L29.2,9.3z"></path></g></g></g></svg></g><line x1="41" y1="1" x2="41" y2="28" stroke="#3AAFA9" stroke-linecap="round"></line><path fill="#3AAFA9" fill-rule="nonzero" d="M0.24 4.58L1.82 4.58L1.82 15.48L0.24 15.48L0.24 4.58ZM0 1.03L0 1.03Q0 0.62 0.31 0.31Q0.62 0 1.06 0L1.06 0Q1.49 0 1.80 0.31Q2.11 0.62 2.11 1.03L2.11 1.03Q2.11 1.49 1.80 1.79Q1.49 2.09 1.06 2.09L1.06 2.09Q0.60 2.09 0.30 1.79Q0 1.49 0 1.03ZM5.69 19.85L5.69 4.58L6.96 4.58L7.18 5.76Q8.52 4.30 10.73 4.30L10.73 4.30Q13.08 4.30 14.45 6.07L14.45 6.07Q15.60 7.58 15.60 9.82L15.60 9.82Q15.60 12.77 13.92 14.42L13.92 14.42Q12.55 15.77 10.61 15.77L10.61 15.77Q8.50 15.77 7.30 14.47L7.30 14.47L7.30 19.85L5.69 19.85ZM7.30 7.54L7.30 7.54L7.30 12.70Q7.58 13.44 8.44 13.94Q9.29 14.45 10.20 14.45L10.20 14.45Q11.86 14.45 12.86 13.25Q13.87 12.05 13.87 10.06L13.87 10.06Q13.87 7.82 12.77 6.62L12.77 6.62Q11.86 5.62 10.37 5.62L10.37 5.62Q9.43 5.62 8.54 6.17Q7.66 6.72 7.30 7.54ZM28.39 10.06L28.39 10.06Q28.39 12.65 26.76 14.30L26.76 14.30Q25.30 15.77 23.16 15.77L23.16 15.77Q20.69 15.77 19.18 13.90L19.18 13.90Q17.90 12.31 17.90 10.06L17.90 10.06Q17.90 7.42 19.49 5.78L19.49 5.78Q20.93 4.30 23.16 4.30L23.16 4.30Q25.68 4.30 27.17 6.19L27.17 6.19Q28.39 7.78 28.39 10.06ZM19.63 10.06L19.63 10.06Q19.63 12.14 20.71 13.37L20.71 13.37Q21.67 14.45 23.14 14.45L23.14 14.45Q24.72 14.45 25.69 13.24Q26.66 12.02 26.66 10.06L26.66 10.06Q26.66 7.99 25.61 6.74L25.61 6.74Q24.65 5.59 23.16 5.59L23.16 5.59Q21.58 5.59 20.60 6.83Q19.63 8.06 19.63 10.06Z" transform="translate(51, 6.76)"></path></svg>